<svg width="100" height="100" xmlns="http://www.w3.org/2000/svg">

 <g>
  <title>background</title>
  <rect fill="none" id="canvas_background" height="102" width="102" y="-1" x="-1"/>
 </g>
 <g>
  <title>Layer 1</title>
  <circle fill="#ffffff" r="50" id="XMLID_11_" cy="50" cx="50"/>
  <path stroke-opacity="0" stroke="#000000" id="svg_3" fill-rule="evenodd" clip-rule="evenodd" fill="#586bba" d="m48.91425,71.238059l4.247254,0c0,0 1.282954,-0.136947 1.937936,-0.82356c0.602892,-0.630333 0.5836,-1.814083 0.5836,-1.814083s-0.082958,-5.541677 2.56205,-6.357733c2.607388,-0.803862 5.955609,5.355954 9.504474,7.724393c2.683593,1.792509 4.722816,1.399489 4.722816,1.399489l9.48904,-0.128505c0,0 4.963973,-0.297345 2.610282,-4.092474c-0.192925,-0.310477 -1.370736,-2.807421 -7.055285,-7.938256c-5.949822,-5.370024 -5.153039,-4.50144 2.014142,-13.79041c4.364939,-5.657051 6.10995,-9.11075 5.564935,-10.589969c-0.519934,-1.408869 -3.730214,-1.036485 -3.730214,-1.036485l-10.684213,0.064722c0,0 -0.791959,-0.105055 -1.379417,0.236375c-0.573953,0.334864 -0.943406,1.115277 -0.943406,1.115277s-1.690992,4.377625 -3.946291,8.100529c-4.757542,7.855712 -6.659787,8.270306 -7.437277,7.782549c-1.808676,-1.136851 -1.357231,-4.5671 -1.357231,-7.004012c0,-7.612771 1.187456,-10.786948 -2.312212,-11.608632c-1.161411,-0.272957 -2.016071,-0.453052 -4.986159,-0.48213c-3.812207,-0.038458 -7.038886,0.011256 -8.86589,0.881716c-1.215431,0.578743 -2.153048,1.868487 -1.581989,1.942589c0.706107,0.091924 2.305459,0.419284 3.153367,1.542065c1.094852,1.448265 1.056267,4.701233 1.056267,4.701233s0.628937,8.961609 -1.469128,10.07501c-1.440189,0.763528 -3.415746,-0.79542 -7.657212,-7.92231c-2.173305,-3.650678 -3.814137,-7.685935 -3.814137,-7.685935s-0.316398,-0.754148 -0.880705,-1.157486c-0.684885,-0.488696 -1.641796,-0.644403 -1.641796,-0.644403l-10.152703,0.064722c0,0 -1.524111,0.041272 -2.083595,0.685675c-0.497748,0.573115 -0.03955,1.758742 -0.03955,1.758742s7.94853,18.082677 16.948503,27.195303c8.252387,8.354726 17.623742,7.805998 17.623742,7.805998l0,0z"/>
 </g>
</svg>