<svg width="550" height="550" xmlns="http://www.w3.org/2000/svg">

 <g>
  <title>background</title>
  <rect fill="none" id="canvas_background" height="552" width="552" y="-1" x="-1"/>
 </g>
 <g>
  <title>Layer 1</title>
  <path stroke="null" id="svg_2" fill-rule="evenodd" fill="#ffffff" d="m408.101148,261.251862c1.22,-74.396 -57.458,-135.792 -130.944,-137.001c-73.487,-1.209 -133.974,58.068 -135.482,132.464c-0.3,34.175 11.492,65.322 31.757,89.516l-8.774,33.266l-4.537,17.237l16.938,-6.955l32.656,-13.3c18.757,10.582 40.221,16.928 62.905,17.237c73.786,1.209 134.283,-58.068 135.481,-132.464l0,0zm-245.862,-119.459c29.938,-29.034 70.459,-46.876 114.917,-46.271l0,0l0.599,0c44.758,0.91 84.979,19.961 113.729,49.899c28.419,29.943 45.967,70.769 45.347,115.832l0,0l0,0.3c-0.909,45.057 -19.655,85.588 -49.294,114.617c-47.476,46.277 -118.245,59.277 -179.031,31.758l-0.899,0.3l-89.826,36.593l24.193,-91.634l0.31,-0.909c-19.356,-27.819 -29.639,-60.786 -29.04,-95.561l0,0l0,-0.305c0.91,-45.065 19.357,-85.585 48.995,-114.619l0,0zm343.253,-127.623l-460.898,0c-14.209,0 -25.701,11.492 -25.701,25.707l0,460.892c0,13.91 11.492,25.401 25.701,25.401l460.897,0c13.91,0 25.401,-11.491 25.401,-25.401l0,-460.892c0.001,-14.215 -11.49,-25.707 -25.4,-25.707l0,0zm-265.529,237.099c4.227,9.678 13.3,20.266 21.774,28.13c8.463,7.864 20.255,16.028 29.938,19.356c0.909,0.299 4.236,1.808 7.254,1.209c2.419,-0.311 3.928,-2.419 6.346,-5.146c3.947,-4.837 5.146,-6.655 8.784,-11.492c2.707,-3.327 5.746,-4.536 8.453,-3.027l31.458,14.52c2.418,1.209 3.327,4.536 3.927,8.773c0.31,3.627 0.909,7.555 0.31,10.282c-1.509,6.655 -16.928,20.565 -29.039,23.283c-26.001,5.746 -62.894,-14.819 -86.487,-36.594c-23.893,-21.773 -47.786,-56.854 -44.458,-83.165c1.519,-12.096 14.22,-28.729 20.565,-30.848c2.728,-0.904 6.955,-0.604 10.592,-0.604c4.227,0 7.854,0.305 9.063,3.023l13.92,36.294c1.209,2.723 -0.909,5.746 -3.937,9.073c-3.927,4.836 -4.537,5.141 -8.164,9.978c-2.118,2.418 -0.909,5.746 -0.299,6.955l0,0z" clip-rule="evenodd"/>
  <rect stroke="null" id="svg_3" height="558.528744" width="23.616436" y="-3.175799" x="-3.083513" stroke-opacity="null" stroke-width="null" fill="#ffffff"/>
  <rect id="svg_4" height="560.890349" width="47.232872" y="1.547509" x="518.839717" stroke-opacity="null" stroke-width="null" stroke="null" fill="#ffffff"/>
  <rect id="svg_5" height="79.11506" width="554.986241" y="502.215947" x="-16.072553" stroke-opacity="null" stroke-width="null" stroke="null" fill="#ffffff"/>
  <rect id="svg_6" height="36.605475" width="544.358844" y="-1.994957" x="14.628814" stroke-opacity="null" stroke-width="null" stroke="null" fill="#ffffff"/>
 </g>
</svg>